<?xml version="1.0" encoding="UTF-8" standalone="no"?>
<svg width="240px" height="240px" viewBox="0 0 240 240" version="1.1" xmlns="http://www.w3.org/2000/svg" xmlns:xlink="http://www.w3.org/1999/xlink">
    <!-- Generator: Sketch 47.1 (45422) - http://www.bohemiancoding.com/sketch -->
    <title>Timeliner</title>
    <desc>Created with Sketch.</desc>
    <defs></defs>
    <g id="Page-1" stroke="none" stroke-width="1" fill="none" fill-rule="evenodd">
        <g id="Timeliner">
            <g id="Group" transform="translate(23.000000, 44.000000)">
                <path d="M0,78 C6.06092739,78 10.95862,78 14.6930779,78 C18.4275357,78 23.4227612,78 29.6787542,78 L181.693078,78 L181.693078,94 L14.6930779,94 L0,78 Z" id="Rectangle" fill="#FAFAFA"></path>
                <path d="M175.089399,-1.33226763e-15 L132.09662,74.664809 L150.443002,74.664809 L193.550749,1.38777878e-15 L175.089399,0 Z" id="Combined-Shape" fill="#769FCD"></path>
                <path d="M153.089399,-1.33226763e-15 L110.09662,74.664809 L128.443002,74.664809 L171.550749,4.71844785e-15 L153.089399,0 Z" id="Combined-Shape" fill="#B9D7EA"></path>
                <path d="M131.089399,-1.33226763e-15 L88.0966203,74.664809 L106.443002,74.664809 L149.550749,1.38777878e-15 L131.089399,0 Z" id="Combined-Shape" fill="#D6E6F2"></path>
                <path d="M64.6458527,151.619593 L95.9033797,97.335191 L77.5569982,97.335191 L53.5712519,138.879722 L64.6458527,151.619593 Z" id="Combined-Shape" fill="#F7FBFC"></path>
            </g>
        </g>
    </g>
</svg>